<svg viewBox="0 0 137 137" fill="none" xmlns="http://www.w3.org/2000/svg">
<g clip-path="url(#clip0_20_415)">
<path d="M109 136.878H31.8649C27.3866 136.872 23.0934 135.091 19.9268 131.924C16.7602 128.758 14.9789 124.465 14.9735 119.986V18.2605C14.9789 13.7823 16.7602 9.48904 19.9268 6.32245C23.0934 3.15587 27.3866 1.37452 31.8649 1.36917H82.4614C83.1255 1.36887 83.7831 1.4994 84.3968 1.75331C85.0105 2.00722 85.5681 2.37953 86.0378 2.84898L124.412 41.2363C124.881 41.7061 125.253 42.2637 125.507 42.8774C125.761 43.491 125.892 44.1487 125.891 44.8128V119.983C125.887 124.462 124.106 128.756 120.939 131.923C117.773 135.091 113.479 136.872 109 136.878ZM31.8649 11.4818C30.0676 11.4835 28.3444 12.1983 27.0735 13.4692C25.8026 14.7401 25.0879 16.4632 25.0861 18.2605V119.986C25.0879 121.784 25.8026 123.507 27.0735 124.778C28.3444 126.049 30.0676 126.763 31.8649 126.765H109C110.797 126.763 112.521 126.049 113.791 124.778C115.062 123.507 115.777 121.784 115.779 119.986V46.9061L80.3546 11.4818H31.8649Z" fill="#CACACA"/>
<path d="M120.835 49.8691H94.2832C89.805 49.8638 85.5117 48.0824 82.3451 44.9158C79.1785 41.7492 77.3972 37.456 77.3918 32.9777V6.42546C77.3918 5.08445 77.9246 3.79836 78.8728 2.85012C79.821 1.90189 81.1071 1.36917 82.4481 1.36917C83.7891 1.36917 85.0752 1.90189 86.0235 2.85012C86.9717 3.79836 87.5044 5.08445 87.5044 6.42546V32.9777C87.5062 34.775 88.221 36.4982 89.4919 37.7691C90.7627 39.04 92.4859 39.7547 94.2832 39.7565H120.835C122.177 39.7565 123.463 40.2892 124.411 41.2375C125.359 42.1857 125.892 43.4718 125.892 44.8128C125.892 46.1538 125.359 47.4399 124.411 48.3882C123.463 49.3364 122.177 49.8691 120.835 49.8691Z" fill="#CACACA"/>
<path d="M88.7785 86.4665C88.1145 86.4674 87.4569 86.3368 86.8436 86.0822C86.2304 85.8277 85.6736 85.4542 85.2054 84.9833L70.4276 70.2055L55.6463 84.9833C55.1799 85.4663 54.622 85.8515 54.0051 86.1165C53.3882 86.3815 52.7247 86.5209 52.0533 86.5268C51.382 86.5326 50.7162 86.4047 50.0948 86.1504C49.4734 85.8962 48.9088 85.5208 48.4341 85.046C47.9593 84.5713 47.5839 84.0067 47.3296 83.3853C47.0754 82.7639 46.9475 82.0981 46.9533 81.4267C46.9591 80.7554 47.0986 80.0919 47.3636 79.475C47.6286 78.8581 48.0138 78.3001 48.4967 77.8337L66.8511 59.4793C67.7993 58.5314 69.0851 57.9989 70.4259 57.9989C71.7666 57.9989 73.0525 58.5314 74.0007 59.4793L92.355 77.8337C93.0626 78.5409 93.5445 79.442 93.7398 80.4232C93.9351 81.4043 93.835 82.4213 93.4521 83.3455C93.0692 84.2697 92.4208 85.0595 91.5888 85.6151C90.7569 86.1707 89.7789 86.467 88.7785 86.4665Z" fill="#CACACA"/>
<path d="M70.4278 111.596C69.0867 111.596 67.8007 111.064 66.8524 110.115C65.9042 109.167 65.3715 107.881 65.3715 106.54V66.4267C65.3715 65.0857 65.9042 63.7996 66.8524 62.8514C67.8007 61.9032 69.0867 61.3705 70.4278 61.3705C71.7688 61.3705 73.0549 61.9032 74.0031 62.8514C74.9513 63.7996 75.4841 65.0857 75.4841 66.4267V106.54C75.4841 107.881 74.9513 109.167 74.0031 110.115C73.0549 111.064 71.7688 111.596 70.4278 111.596Z" fill="#CACACA"/>
</g>
<defs>
<clipPath id="clip0_20_415">
<rect x="0.0740967" width="136.854" height="136.854" rx="28" fill="white"/>
</clipPath>
</defs>
</svg>
