<svg viewBox="0 0 28 28" fill="none" xmlns="http://www.w3.org/2000/svg">
<path d="M14 25.6667C17.2217 25.6667 20.1383 24.3608 22.2496 22.2496C24.3609 20.1383 25.6667 17.2216 25.6667 14C25.6667 10.7784 24.3609 7.8617 22.2496 5.75041C20.1383 3.63917 17.2217 2.33333 14 2.33333C10.7784 2.33333 7.86174 3.63917 5.75046 5.75041C3.63921 7.8617 2.33337 10.7784 2.33337 14C2.33337 17.2216 3.63921 20.1383 5.75046 22.2496C7.86174 24.3608 10.7784 25.6667 14 25.6667Z" stroke="#636363" stroke-width="1.5" stroke-linejoin="round"/>
<path fill-rule="evenodd" clip-rule="evenodd" d="M14 6.41667C14.8054 6.41667 15.4583 7.0696 15.4583 7.87501C15.4583 8.68041 14.8054 9.33334 14 9.33334C13.1946 9.33334 12.5416 8.68041 12.5416 7.87501C12.5416 7.0696 13.1946 6.41667 14 6.41667Z" fill="#636363"/>
<path d="M14.2917 19.8333V11.6667H13.7083H13.125" stroke="#636363" stroke-width="1.5" stroke-linecap="round" stroke-linejoin="round"/>
<path d="M12.25 19.8333H16.3333" stroke="#636363" stroke-width="1.5" stroke-linecap="round" stroke-linejoin="round"/>
</svg>
