<svg viewBox="0 0 30 28" fill="none" xmlns="http://www.w3.org/2000/svg">
<path d="M8.98566 11.6667C7.65144 11.6667 6.56983 12.7113 6.56983 14C6.56983 15.2887 7.65144 16.3333 8.98566 16.3333C10.3199 16.3333 11.4015 15.2887 11.4015 14C11.4015 12.7113 10.3199 11.6667 8.98566 11.6667Z" fill="#8A7ED4"/>
<path fill-rule="evenodd" clip-rule="evenodd" d="M8.98566 7.29167C5.14977 7.29167 2.04016 10.2951 2.04016 14C2.04016 17.7049 5.14977 20.7083 8.98566 20.7083C11.6196 20.7083 13.9094 19.2923 15.0866 17.2083H18.9509V19.8333C18.9509 20.3166 19.3565 20.7083 19.8569 20.7083H24.0846C24.5849 20.7083 24.9905 20.3166 24.9905 19.8333V17.2083H27.1043C27.6047 17.2083 28.0103 16.8166 28.0103 16.3333V12.8333C28.0103 11.7058 27.0639 10.7917 25.8964 10.7917H15.0866C13.9094 8.70766 11.6196 7.29167 8.98566 7.29167ZM3.85203 14C3.85203 11.2616 6.15043 9.04167 8.98566 9.04167C11.0894 9.04167 12.8995 10.264 13.6925 12.017C13.8367 12.3357 14.1626 12.5417 14.5227 12.5417H25.8964C26.0632 12.5417 26.1984 12.6723 26.1984 12.8333V15.4583H24.0846C23.5842 15.4583 23.1786 15.8501 23.1786 16.3333V18.9583H20.7628V16.3333C20.7628 15.8501 20.3572 15.4583 19.8569 15.4583H14.5227C14.1626 15.4583 13.8367 15.6643 13.6925 15.983C12.8995 17.736 11.0894 18.9583 8.98566 18.9583C6.15043 18.9583 3.85203 16.7384 3.85203 14Z" fill="#8A7ED4"/>
</svg>
