<svg viewBox="0 0 29 29" fill="none" xmlns="http://www.w3.org/2000/svg">
<path d="M12.0064 20.532C12.0064 19.3322 12.984 18.3595 14.19 18.3595C15.396 18.3595 16.3737 19.3322 16.3737 20.532C16.3737 21.7319 15.396 22.7045 14.19 22.7045C12.984 22.7045 12.0064 21.7319 12.0064 20.532Z" fill="#F64A83"/>
<path fill-rule="evenodd" clip-rule="evenodd" d="M7.81617 12.7068L7.35696 8.59503C7.29809 8.06787 7.29809 7.53584 7.35696 7.00868L7.39011 6.71192C7.74166 3.56411 10.229 1.07346 13.3906 0.703399C13.9217 0.641236 14.4583 0.641236 14.9894 0.703399C18.151 1.07346 20.6383 3.56411 20.9899 6.71192L21.023 7.00868C21.0819 7.53584 21.0819 8.06787 21.023 8.59503L20.5638 12.7068L21.5634 12.7862C23.1396 12.9114 24.4266 14.0902 24.6821 15.6427C25.215 18.8807 25.215 22.1833 24.6821 25.4213C24.4266 26.9738 23.1396 28.1526 21.5634 28.2778L19.3853 28.4508C15.9273 28.7254 12.4528 28.7254 8.99481 28.4508L6.81679 28.2778C5.24059 28.1526 3.95354 26.9738 3.69803 25.4213C3.16511 22.1833 3.16511 18.8807 3.69803 15.6427C3.95354 14.0902 5.24059 12.9114 6.81679 12.7862L7.81617 12.7068ZM13.6457 2.86103C14.0073 2.81871 14.3727 2.81871 14.7343 2.86103C16.8868 3.11298 18.5802 4.8087 18.8196 6.95183L18.8527 7.24859C18.8938 7.6163 18.8938 7.98741 18.8527 8.35512L18.3852 12.5415C15.5913 12.3625 12.7887 12.3625 9.9948 12.5415L9.52726 8.35512C9.48619 7.98741 9.48619 7.6163 9.52726 7.24859L9.5604 6.95183C9.79975 4.8087 11.4932 3.11298 13.6457 2.86103ZM19.2116 14.7788C15.8692 14.5134 12.5109 14.5134 9.16858 14.7788L6.99056 14.9518C6.41564 14.9975 5.94618 15.4275 5.85298 15.9937C5.35833 18.9992 5.35833 22.0648 5.85298 25.0703C5.94618 25.6365 6.41564 26.0665 6.99056 26.1122L9.16858 26.2852C12.5109 26.5506 15.8692 26.5506 19.2116 26.2852L21.3896 26.1122C21.9645 26.0665 22.434 25.6365 22.5272 25.0703C23.0218 22.0648 23.0218 18.9992 22.5272 15.9937C22.434 15.4275 21.9645 14.9975 21.3896 14.9518L19.2116 14.7788Z" fill="#F64A83"/>
</svg>
