<svg viewBox="0 0 18 18" fill="none" xmlns="http://www.w3.org/2000/svg">
<path fill-rule="evenodd" clip-rule="evenodd" d="M5.79137 5.09003C5.58374 4.8684 5.47042 4.57471 5.47538 4.27105C5.48033 3.9674 5.60316 3.67756 5.8179 3.46282C6.03265 3.24807 6.32248 3.12524 6.62614 3.12029C6.9298 3.11534 7.22348 3.22865 7.44512 3.43628L12.1825 8.17366C12.4016 8.39304 12.5247 8.69044 12.5247 9.00053C12.5247 9.31062 12.4016 9.60802 12.1825 9.82741L7.44624 14.5637C7.22461 14.7713 6.93092 14.8846 6.62727 14.8796C6.32361 14.8747 6.03378 14.7519 5.81903 14.5371C5.60428 14.3224 5.48145 14.0325 5.4765 13.7289C5.47155 13.4252 5.58486 13.1315 5.79249 12.9099L9.70187 9.00053L5.79137 5.09003Z" fill="#EEEEEE"/>
</svg>
