<svg viewBox="0 0 172 32" fill="none" xmlns="http://www.w3.org/2000/svg">
<path d="M154.928 11V4.112H152.3V2.768H159.128V4.112H156.488V11H154.928ZM160.342 11V2.768H162.802L164.098 7.352C164.146 7.512 164.194 7.692 164.242 7.892C164.29 8.092 164.334 8.284 164.374 8.468C164.422 8.652 164.458 8.812 164.482 8.948H164.578C164.594 8.828 164.618 8.68 164.65 8.504C164.682 8.328 164.718 8.14 164.758 7.94C164.806 7.732 164.858 7.532 164.914 7.34L166.21 2.768H168.646V11H167.086V6.836C167.086 6.468 167.09 6.1 167.098 5.732C167.106 5.364 167.114 5.048 167.122 4.784C167.138 4.52 167.146 4.364 167.146 4.316H167.05C167.034 4.388 166.994 4.544 166.93 4.784C166.866 5.024 166.798 5.284 166.726 5.564C166.654 5.844 166.59 6.084 166.534 6.284L165.178 11H163.738L162.382 6.296C162.334 6.128 162.278 5.928 162.214 5.696C162.158 5.456 162.098 5.212 162.034 4.964C161.978 4.716 161.926 4.5 161.878 4.316H161.782C161.79 4.532 161.798 4.792 161.806 5.096C161.814 5.392 161.822 5.696 161.83 6.008C161.838 6.312 161.842 6.588 161.842 6.836V11H160.342Z" fill="#181818"/>
<path d="M67.3876 7.99579V20.5044C67.3851 22.4916 66.5951 24.3966 65.1911 25.8017C63.7871 27.2069 61.8835 27.9974 59.898 28C54.0139 27.923 51.245 21.1395 48.6491 14.5292C46.2743 8.58274 44.0246 2.98275 39.9961 2.98275H39.9384C35.7177 2.98275 33.3237 9.03498 31.0066 14.8274C28.4107 21.3127 25.786 27.9903 20.0173 27.9903H19.9212C14.0371 27.923 11.2682 21.1298 8.70107 14.5195C6.31669 8.57311 4.07652 2.97311 0.0480715 2.97311H0V0.471405H0.0865301C5.8552 0.471405 8.47994 7.14907 11.0662 13.6151C13.3833 19.3883 15.7773 25.4116 19.998 25.4597H20.0173C24.0553 25.4597 26.3052 19.8405 28.6703 13.9134C31.295 7.35113 34.0063 0.567629 39.9 0.490653H39.9961C45.7648 0.490653 48.3895 7.1683 50.9662 13.6343C53.2833 19.4075 55.6772 25.4212 59.898 25.479C61.2198 25.4764 62.4865 24.9492 63.4201 24.0129C64.3539 23.0767 64.8783 21.808 64.8783 20.4852V7.97656C64.8757 6.6529 64.3492 5.38417 63.4139 4.4482C62.4787 3.51223 61.211 2.98529 59.8884 2.98275V0.481021C61.8781 0.483571 63.7856 1.27643 65.1917 2.68545C66.5978 4.09447 67.3876 6.00442 67.3876 7.99579Z" fill="#181818"/>
<path d="M55.6484 3.5024C56.6148 3.5024 57.3982 2.71837 57.3982 1.75121C57.3982 0.784047 56.6148 0 55.6484 0C54.682 0 53.8986 0.784047 53.8986 1.75121C53.8986 2.71837 54.682 3.5024 55.6484 3.5024Z" fill="#181818"/>
<path d="M104.846 9.67006V27.9518H102.346V9.67006C102.346 8.01132 101.687 6.42052 100.515 5.24761C99.3432 4.0747 97.7537 3.41577 96.0962 3.41577C94.4388 3.41577 92.8492 4.0747 91.6773 5.24761C90.5053 6.42052 89.8468 8.01132 89.8468 9.67006V27.9518H87.3471V9.67006C87.3471 8.01132 86.6887 6.42052 85.5167 5.24761C84.3447 4.0747 82.7552 3.41577 81.0977 3.41577C79.4403 3.41577 77.8507 4.0747 76.6787 5.24761C75.5067 6.42052 74.8483 8.01132 74.8483 9.67006V27.9518H72.3581V9.67006C72.304 7.29477 73.1938 4.99502 74.8324 3.27577C76.471 1.55653 78.7243 0.558318 81.0977 0.500305C82.6273 0.512628 84.1263 0.930526 85.4419 1.71142C86.7576 2.49232 87.843 3.6083 88.5874 4.94566C89.3317 3.6083 90.417 2.49232 91.7327 1.71142C93.0484 0.930526 94.5474 0.512628 96.077 0.500305C98.4545 0.553315 100.714 1.54901 102.358 3.26852C104.002 4.98803 104.897 7.29061 104.846 9.67006Z" fill="#181818"/>
<path d="M126.219 17.993H109.99V20.4947H126.219V17.993Z" fill="#181818"/>
<path d="M127.314 27.9905H124.815V9.70868C124.815 8.04993 124.157 6.45913 122.984 5.28623C121.812 4.11332 120.223 3.45438 118.565 3.45438C116.908 3.45438 115.318 4.11332 114.146 5.28623C112.974 6.45913 112.316 8.04993 112.316 9.70868V27.9905H109.816V9.70868C109.761 8.52557 109.946 7.3435 110.36 6.23399C110.774 5.12448 111.409 4.11061 112.226 3.25371C113.043 2.39681 114.025 1.71468 115.113 1.24863C116.201 0.782585 117.372 0.542297 118.556 0.542297C119.739 0.542297 120.91 0.782585 121.998 1.24863C123.086 1.71468 124.069 2.39681 124.886 3.25371C125.702 4.11061 126.338 5.12448 126.752 6.23399C127.166 7.3435 127.351 8.52557 127.295 9.70868L127.314 27.9905Z" fill="#181818"/>
<path d="M149.688 27.9905H147.198V9.70868C147.198 8.04993 146.539 6.45913 145.367 5.28623C144.195 4.11332 142.605 3.45438 140.947 3.45438C139.291 3.45438 137.701 4.11332 136.529 5.28623C135.357 6.45913 134.698 8.04993 134.698 9.70868V27.9905H132.198V9.70868C132.143 8.52557 132.328 7.3435 132.742 6.23399C133.157 5.12448 133.791 4.11061 134.608 3.25371C135.426 2.39681 136.408 1.71468 137.495 1.24863C138.583 0.782585 139.754 0.542297 140.939 0.542297C142.122 0.542297 143.293 0.782585 144.381 1.24863C145.469 1.71468 146.451 2.39681 147.269 3.25371C148.085 4.11061 148.72 5.12448 149.134 6.23399C149.549 7.3435 149.734 8.52557 149.678 9.70868L149.688 27.9905Z" fill="#181818"/>
</svg>
