<svg viewBox="0 0 30 28" fill="none" xmlns="http://www.w3.org/2000/svg">
<path d="M12.7946 19.875C12.7946 18.6752 13.782 17.7025 15 17.7025C16.218 17.7025 17.2054 18.6752 17.2054 19.875C17.2054 21.0749 16.218 22.0476 15 22.0476C13.782 22.0476 12.7946 21.0749 12.7946 19.875Z" fill="#47D88B"/>
<path fill-rule="evenodd" clip-rule="evenodd" d="M11.7809 2.50172C12.1225 2.36773 12.4789 2.27365 12.8428 2.22142C15.0088 1.9105 17.1064 3.11241 17.9029 5.12094L18.0132 5.39906C18.1499 5.74367 18.2474 6.10214 18.3039 6.46791L18.6224 8.52795L20.8026 8.20084L20.4842 6.14079C20.4031 5.61642 20.2633 5.10251 20.0674 4.60845L19.9571 4.33033C18.7871 1.38023 15.7063 -0.385114 12.5248 0.0715609C11.9904 0.148275 11.4669 0.28645 10.9651 0.483258C7.97811 1.65485 6.20602 4.70119 6.69011 7.83234L6.73574 8.12753C6.81681 8.65191 6.9566 9.16582 7.15253 9.65987L8.11428 12.0849L7.55342 12.129C5.96155 12.2542 4.66171 13.4331 4.40366 14.9856C3.86545 18.2236 3.86545 21.5264 4.40366 24.7645C4.66171 26.317 5.96156 27.4958 7.55342 27.621L9.75309 27.794C13.2455 28.0687 16.7545 28.0687 20.2469 27.794L22.4466 27.621C24.0384 27.4958 25.3383 26.317 25.5963 24.7645C26.1346 21.5264 26.1346 18.2236 25.5963 14.9856C25.3383 13.4331 24.0384 12.2542 22.4466 12.129L20.2469 11.956C16.974 11.6986 13.6864 11.6825 10.4116 11.9075L9.20668 8.86927C9.07001 8.52465 8.97251 8.16618 8.91596 7.80041L8.87032 7.50522C8.54074 5.37343 9.74724 3.29938 11.7809 2.50172ZM20.0714 14.1217C16.6958 13.8562 13.3042 13.8562 9.92859 14.1217L7.72892 14.2947C7.14828 14.3404 6.67416 14.7704 6.58003 15.3366C6.08047 18.3422 6.08047 21.4078 6.58003 24.4134C6.67416 24.9797 7.14828 25.4097 7.72892 25.4553L9.92859 25.6283C13.3042 25.8938 16.6958 25.8938 20.0714 25.6283L22.2711 25.4553C22.8517 25.4097 23.3258 24.9797 23.42 24.4134C23.9195 21.4078 23.9195 18.3422 23.42 15.3366C23.3258 14.7704 22.8517 14.3404 22.2711 14.2947L20.0714 14.1217Z" fill="#47D88B"/>
</svg>
